<?xml version="1.0" encoding="UTF-8"?>
<svg version="1.1" xmlns="http://www.w3.org/2000/svg" width="751" height="648">
<path d="M0 0 C43.56 0 87.12 0 132 0 C136.29 7.59 140.58 15.18 145 23 C147.28051011 26.94523567 149.56488416 30.88500576 151.875 34.8125 C156.78185941 43.19020008 161.65515223 51.58628542 166.5 60 C171.30839128 68.34805648 176.13897117 76.6824834 181 85 C186.49945536 94.4099033 191.95449196 103.84470563 197.39453125 113.2890625 C201.57349128 120.5395149 205.77740506 127.77488269 210 135 C215.49945536 144.4099033 220.95449196 153.84470563 226.39453125 163.2890625 C230.57349128 170.5395149 234.77740506 177.77488269 239 185 C243.86102967 193.31751803 248.69139603 201.65206508 253.5 210 C258.4163034 218.53327529 263.35019508 227.05588541 268.3125 235.5625 C268.88629395 236.54686035 269.46008789 237.5312207 270.05126953 238.54541016 C272.71549255 243.11012761 275.39142831 247.66707508 278.09765625 252.20703125 C278.80571411 253.39800415 278.80571411 253.39800415 279.52807617 254.61303711 C280.40065719 256.07841017 281.27689621 257.54161369 282.1574707 259.00219727 C285 263.77805783 285 263.77805783 285 266 C285.66 266 286.32 266 287 266 C287.26393555 265.29399658 287.52787109 264.58799316 287.79980469 263.8605957 C289.07073408 260.83140942 290.56762793 258.07919805 292.203125 255.23046875 C293.16810913 253.5451001 293.16810913 253.5451001 294.15258789 251.82568359 C294.85159872 250.61288279 295.55073939 249.40015681 296.25 248.1875 C296.9747148 246.92540022 297.69924024 245.66319169 298.42358398 244.40087891 C303.50292933 235.5586574 308.62905104 226.74381366 313.77832031 217.94213867 C318.04722541 210.644292 322.28057749 203.3265555 326.5 196 C331.87398258 186.67014028 337.2822798 177.36113833 342.71508789 168.06542969 C347.76319784 159.42131779 352.76907715 150.75322856 357.76367188 142.078125 C361.81832133 135.03749339 365.90604167 128.01821428 370 121 C332.05 120.67 294.1 120.34 255 120 C250.38 111.75 245.76 103.5 241 95 C236.18473228 86.81856352 236.18473228 86.81856352 231.34375 78.65234375 C227.69574994 72.50771657 224.1263109 66.31873021 220.5625 60.125 C215.68674434 51.65486907 210.79855968 43.19245068 205.875 34.75 C205.309021 33.7794165 204.74304199 32.80883301 204.15991211 31.80883789 C201.20157083 26.74398497 198.22726615 21.68905083 195.234375 16.64453125 C194.62867676 15.62327148 194.02297852 14.60201172 193.39892578 13.54980469 C192.23797699 11.59475798 191.07497088 9.64093113 189.90966797 7.68847656 C189.39549316 6.82319336 188.88131836 5.95791016 188.3515625 5.06640625 C187.89604004 4.30271729 187.44051758 3.53902832 186.97119141 2.75219727 C186 1 186 1 186 0 C313.38 0 440.76 0 572 0 C567.83668972 8.32662056 563.79106456 16.33619485 559 24.25 C557.86202628 26.1528959 556.72536278 28.0565758 555.58984375 29.9609375 C554.70981689 31.43578613 554.70981689 31.43578613 553.81201172 32.94042969 C550.68223469 38.22503837 547.62367711 43.55045516 544.5625 48.875 C539.73463964 57.26557373 534.88530652 65.6427374 530 74 C525.1388845 82.31746671 520.30851774 90.65201663 515.5 99 C510.1208592 108.33863207 504.70740553 117.65640317 499.26953125 126.9609375 C494.98777878 134.29283723 490.73789061 141.64267238 486.5 149 C481.1208592 158.33863207 475.70740553 167.65640317 470.26953125 176.9609375 C465.98777838 184.29283792 461.73799281 191.6427307 457.5 199 C452.41572687 207.82413753 447.31465217 216.6381983 442.1875 225.4375 C441.59453125 226.45650391 441.0015625 227.47550781 440.390625 228.52539062 C439.56884766 229.93401367 439.56884766 229.93401367 438.73046875 231.37109375 C438.24989014 232.19536865 437.76931152 233.01964355 437.27416992 233.86889648 C436.23300282 235.61029285 435.12543875 237.31184188 434 239 C450.5 239 467 239 484 239 C485.85625 235.7 487.7125 232.4 489.625 229 C494.87962956 219.6855213 500.22270553 210.42645434 505.62548828 201.19726562 C509.94618924 193.81482863 514.2314716 186.41271506 518.5 179 C526.19097176 165.64972757 533.9548305 152.34266718 541.72949219 139.04101562 C548.98853142 126.61917409 556.21304171 114.17841579 563.39428711 101.71142578 C568.14414532 93.47030809 572.93095041 85.2513309 577.73046875 77.0390625 C582.01222151 69.70716226 586.26203368 62.3572844 590.5 55 C597.09331322 43.55592258 603.72857044 32.13692937 610.3984375 20.73730469 C611.45374452 18.93363056 612.50844688 17.1296025 613.5625 15.32519531 C614.97749172 12.9033117 616.3945707 10.48266463 617.8125 8.0625 C618.22733643 7.352146 618.64217285 6.64179199 619.06958008 5.90991211 C621.88473701 1.11526299 621.88473701 1.11526299 623 0 C624.6575762 -0.09611419 626.31926986 -0.12187755 627.97962952 -0.12025452 C629.0580159 -0.12162918 630.13640228 -0.12300385 631.24746704 -0.12442017 C632.4407663 -0.12082489 633.63406555 -0.11722961 634.86352539 -0.11352539 C636.11212845 -0.11367142 637.36073151 -0.11381744 638.64717102 -0.1139679 C642.08090994 -0.11338891 645.51458938 -0.10835955 648.94831777 -0.10139394 C652.53312459 -0.09515998 656.11793213 -0.09455657 659.70274353 -0.09336853 C666.49550045 -0.09025534 673.28824135 -0.08204212 680.08099121 -0.07201904 C687.81242494 -0.06085753 695.54385942 -0.05534736 703.27529919 -0.05032361 C719.18354208 -0.03985949 735.09176898 -0.02226029 751 0 C749.89769409 2.22457224 748.79321912 4.4480234 747.6875 6.67089844 C747.2244043 7.60631973 747.2244043 7.60631973 746.75195312 8.56063843 C744.07273716 13.93978141 741.11211256 19.10946137 738 24.25 C736.86202628 26.1528959 735.72536278 28.0565758 734.58984375 29.9609375 C733.70981689 31.43578613 733.70981689 31.43578613 732.81201172 32.94042969 C729.68223469 38.22503837 726.62367711 43.55045516 723.5625 48.875 C718.73463964 57.26557373 713.88530652 65.6427374 709 74 C704.13888422 82.31746719 699.30858861 90.65205714 694.5 99 C686.80882531 112.35015665 679.0451704 125.65733128 671.27050781 138.95898438 C664.01146858 151.38082591 656.78695829 163.82158421 649.60571289 176.28857422 C644.86470206 184.51434149 640.08773627 192.71855539 635.29589844 200.91479492 C632.13483974 206.32624348 628.98787281 211.7454632 625.859375 217.17578125 C625.5149939 217.77349335 625.17061279 218.37120544 624.8157959 218.98703003 C623.14108368 221.89465649 621.46811326 224.80326482 619.796875 227.71289062 C618.8996875 229.27233398 618.8996875 229.27233398 617.984375 230.86328125 C617.45553711 231.78407471 616.92669922 232.70486816 616.38183594 233.65356445 C615.31175189 235.47062767 614.16972036 237.24541946 613 239 C657.88 239.33 702.76 239.66 749 240 C749 283.56 749 327.12 749 372 C678.38 372 607.76 372 535 372 C534.34 373.65 533.68 375.3 533 377 C532.03645475 378.79447536 531.03875901 380.57085038 530.015625 382.33203125 C529.1184375 383.88180664 529.1184375 383.88180664 528.203125 385.46289062 C527.55859375 386.56826172 526.9140625 387.67363281 526.25 388.8125 C525.57264387 389.97965943 524.89556488 391.14697975 524.21875 392.31445312 C522.15063886 395.87910806 520.07607734 399.43998022 518 403 C517.39478516 404.03817871 516.78957031 405.07635742 516.16601562 406.14599609 C513.86965015 410.08363286 511.57227653 414.02067602 509.27246094 417.95629883 C504.9893815 425.28954097 500.73880273 432.64108887 496.5 440 C491.1208592 449.33863207 485.70740553 458.65640317 480.26953125 467.9609375 C475.98777854 475.29283764 471.73795309 482.64270807 467.5 490 C459.80882531 503.35015665 452.0451704 516.65733128 444.27050781 529.95898438 C437.01146858 542.38082591 429.78695829 554.82158421 422.60571289 567.28857422 C417.85748865 575.52685693 413.07333307 583.74360064 408.27392578 591.95214844 C404.58834689 598.26109603 400.93085894 604.58553165 397.29003906 610.92041016 C394.80145444 615.24719713 392.30357939 619.56855054 389.80175781 623.88769531 C388.60593363 625.95332765 387.41255039 628.02037513 386.22167969 630.08886719 C384.57580096 632.94104213 382.91531359 635.78414067 381.25 638.625 C380.76063965 639.47868164 380.2712793 640.33236328 379.76708984 641.21191406 C379.08573975 642.36385254 379.08573975 642.36385254 378.390625 643.5390625 C377.99907227 644.21146973 377.60751953 644.88387695 377.20410156 645.57666016 C376.60807129 646.28121338 376.60807129 646.28121338 376 647 C375.01 647 374.02 647 373 647 C372.44054687 645.9790625 371.88109375 644.958125 371.3046875 643.90625 C364.66849043 631.85096264 357.77043871 619.95830633 350.81005859 608.08789062 C347.88839816 603.10364984 344.97473246 598.11475385 342.0625 593.125 C341.20603882 591.65824829 341.20603882 591.65824829 340.33227539 590.16186523 C335.28191421 581.50359889 330.27266539 572.82175842 325.28930664 564.12475586 C322.59822582 559.44062566 319.89379752 554.77764766 317.01953125 550.203125 C316.58680908 549.51033447 316.15408691 548.81754395 315.70825195 548.10375977 C314.59991377 546.34596094 313.4727353 544.60007828 312.34375 542.85546875 C310.74632294 539.46093625 310.98481025 538.53007684 312 535 C313.25244141 532.45825195 313.25244141 532.45825195 314.8515625 529.73828125 C315.44783447 528.71524902 316.04410645 527.6922168 316.65844727 526.63818359 C317.30740967 525.54070801 317.95637207 524.44323242 318.625 523.3125 C319.30404975 522.1522916 319.98234087 520.99163889 320.65991211 519.83056641 C322.06872425 517.41772689 323.4807863 515.00683365 324.89501953 512.59716797 C328.15087871 507.04239623 331.35270457 501.45646353 334.5625 495.875 C339.92130193 486.57819566 345.31634709 477.30310478 350.73071289 468.03857422 C355.01244917 460.70687521 359.26220007 453.35717019 363.5 446 C368.8732449 436.67160371 374.28002931 427.36361007 379.71289062 418.06982422 C382.82309429 412.74496534 385.9209229 407.41323205 389 402.0703125 C389.50237183 401.19859406 389.50237183 401.19859406 390.01489258 400.30926514 C391.62873886 397.50788817 393.24096889 394.70559212 394.8515625 391.90234375 C395.43679688 390.88527344 396.02203125 389.86820312 396.625 388.8203125 C397.13289063 387.93617676 397.64078125 387.05204102 398.1640625 386.14111328 C400.73759556 381.73804462 403.37606731 377.37322116 406 373 C381.25 372.505 381.25 372.505 356 372 C355.34 373.65 354.68 375.3 354 377 C352.974849 378.91655679 351.91556831 380.8150553 350.83203125 382.69921875 C350.19378418 383.81264648 349.55553711 384.92607422 348.89794922 386.07324219 C348.20289367 387.27804914 347.5077414 388.48280029 346.8125 389.6875 C346.09105251 390.94288672 345.36986506 392.19842292 344.64892578 393.45410156 C342.7949706 396.68120292 340.93698535 399.90596414 339.07781982 403.13006592 C338.05233129 404.90920925 337.02805128 406.68904049 336.00439453 408.46923828 C327.06477628 424.01570372 318.04923752 439.51714369 309 455 C297.91661346 473.95185987 297.91661346 473.95185987 287 493 C286.34 493 285.68 493 285 493 C283.47647173 490.35921766 281.952948 487.71843269 280.42944336 485.07763672 C279.08267577 482.74328358 277.73584393 480.40896765 276.38891602 478.07470703 C272.97622702 472.16021511 269.56460594 466.24511559 266.15625 460.328125 C259.55959493 448.87918497 252.93637825 437.44664526 246.26928711 426.03857422 C241.34948718 417.61430661 236.47477862 409.16446104 231.60546875 400.7109375 C227.42650872 393.4604851 223.22259494 386.22511731 219 379 C213.50054464 369.5900967 208.04550804 360.15529437 202.60546875 350.7109375 C198.42650872 343.4604851 194.22259494 336.22511731 190 329 C184.50054464 319.5900967 179.04550804 310.15529437 173.60546875 300.7109375 C169.42650872 293.4604851 165.22259494 286.22511731 161 279 C155.50054464 269.5900967 150.04550804 260.15529437 144.60546875 250.7109375 C140.42650872 243.4604851 136.22259494 236.22511731 132 229 C126.50054464 219.5900967 121.04550804 210.15529437 115.60546875 200.7109375 C111.42650872 193.4604851 107.22259494 186.22511731 103 179 C97.50054464 169.5900967 92.04550804 160.15529437 86.60546875 150.7109375 C82.42650872 143.4604851 78.22259494 136.22511731 74 129 C68.50054464 119.5900967 63.04550804 110.15529437 57.60546875 100.7109375 C53.42650872 93.4604851 49.22259494 86.22511731 45 79 C40.13897005 70.68248149 35.30867491 62.34789436 30.5 54 C25.55985359 45.42686505 20.60666656 36.86158656 15.625 28.3125 C15.04862793 27.3229834 14.47225586 26.3334668 13.87841797 25.31396484 C11.32300207 20.93736314 8.75317664 16.57164393 6.125 12.23828125 C5.48377197 11.18096802 5.48377197 11.18096802 4.82958984 10.10229492 C4.05305471 8.82763784 3.27243035 7.55545859 2.48681641 6.28637695 C0 2.21600298 0 2.21600298 0 0 Z " fill="#404040" transform="translate(0,0)"/>
<path d="M0 0 C2.28787601 -0.01743204 4.57614667 -0.00135542 6.8637085 0.04037476 C8.11274963 0.0394986 9.36179077 0.03862244 10.64868164 0.03771973 C14.07067592 0.0411835 17.49049698 0.07126233 20.91210651 0.11316347 C24.48882451 0.15067855 28.06557167 0.15419638 31.64245605 0.16131592 C38.41413491 0.17996274 45.18523239 0.22919666 51.95665526 0.28941286 C59.66631351 0.35648381 67.37599957 0.38946831 75.08587694 0.41958547 C90.94412362 0.48229659 106.8017903 0.58782739 122.65960693 0.7215271 C121.55730103 2.94609934 120.45282606 5.16955049 119.34710693 7.39242554 C118.88401123 8.32784683 118.88401123 8.32784683 118.41156006 9.28216553 C115.73234409 14.66130851 112.7717195 19.83098847 109.65960693 24.9715271 C108.52163322 26.874423 107.38496972 28.7781029 106.24945068 30.6824646 C105.66276611 31.66569702 105.07608154 32.64892944 104.47161865 33.66195679 C101.34184163 38.94656547 98.28328404 44.27198226 95.22210693 49.5965271 C90.39424657 57.98710083 85.54491345 66.3642645 80.65960693 74.7215271 C75.79849115 83.03899429 70.96819555 91.37358424 66.15960693 99.7215271 C58.46843225 113.07168375 50.70477733 126.37885838 42.93011475 139.68051147 C35.67107551 152.102353 28.44656522 164.54311131 21.26531982 177.01010132 C16.52381117 185.23673233 11.74756262 193.44253231 6.95330811 201.63851929 C3.79979822 207.03481364 0.66531295 212.44137916 -2.44586182 217.8621521 C-2.78787628 218.45749756 -3.12989075 219.05284302 -3.48226929 219.66622925 C-5.14329955 222.5578331 -6.80167892 225.4508604 -8.45562744 228.3465271 C-9.05052979 229.38293335 -9.64543213 230.4193396 -10.25836182 231.4871521 C-10.78196289 232.40270874 -11.30556396 233.31826538 -11.84503174 234.26156616 C-12.33850098 235.07335327 -12.83197021 235.88514038 -13.34039307 236.7215271 C-13.75856954 237.4223428 -14.17674601 238.12315849 -14.60759449 238.84521103 C-16.34039307 240.7215271 -16.34039307 240.7215271 -18.70855999 241.21371841 C-20.12028594 241.20818766 -20.12028594 241.20818766 -21.56053162 241.20254517 C-22.64166733 241.20804382 -23.72280304 241.21354248 -24.83670044 241.21920776 C-26.61586349 241.19763611 -26.61586349 241.19763611 -28.43096924 241.17562866 C-30.3043119 241.17650482 -30.3043119 241.17650482 -32.21549988 241.17739868 C-35.64120994 241.17508738 -39.06595883 241.15501207 -42.49149871 241.12710285 C-46.07092829 241.10211752 -49.65037033 241.09974948 -53.22987366 241.09500122 C-60.00851363 241.08256293 -66.78689592 241.04973003 -73.56542236 241.00960326 C-81.28235826 240.96491189 -88.99930639 240.94290518 -96.71633947 240.92282152 C-112.5911733 240.88099794 -128.46574997 240.81062961 -144.34039307 240.7215271 C-143.40804551 238.83679831 -142.47333162 236.95324003 -141.53765869 235.07015991 C-141.01740112 234.02112488 -140.49714355 232.97208984 -139.96112061 231.89126587 C-137.44524015 226.97083129 -134.65522179 222.22529905 -131.84039307 217.4715271 C-130.59942983 215.35959366 -129.35854665 213.24761317 -128.11773682 211.1355896 C-127.48980225 210.06985718 -126.86186768 209.00412476 -126.21490479 207.90609741 C-123.26456492 202.89382427 -120.3331596 197.87055389 -117.40289307 192.8465271 C-116.82861572 191.86265015 -116.25433838 190.87877319 -115.66265869 189.86508179 C-110.72832746 181.40426801 -105.83489974 172.92013579 -100.94610596 164.43295288 C-96.19624774 156.19183519 -91.40944265 147.972858 -86.60992432 139.7605896 C-82.32817185 132.42868987 -78.07828368 125.07885472 -73.84039307 117.7215271 C-68.46125227 108.38289503 -63.0477986 99.06512393 -57.60992432 89.7605896 C-53.32817161 82.42868946 -49.07834616 75.07881903 -44.84039307 67.7215271 C-38.87570995 57.36817312 -32.87391225 47.03718846 -26.84429932 36.7215271 C-24.38689044 32.51716816 -21.93748543 28.30826006 -19.49273682 24.0965271 C-18.54442993 22.46481567 -18.54442993 22.46481567 -17.57696533 20.80014038 C-16.36894897 18.72124324 -15.16232251 16.6415376 -13.95733643 14.56088257 C-13.13761353 13.15153442 -13.13761353 13.15153442 -12.30133057 11.7137146 C-11.58662598 10.48177368 -11.58662598 10.48177368 -10.85748291 9.22494507 C-10.35684326 8.39881714 -9.85620361 7.57268921 -9.34039307 6.7215271 C-8.90081268 5.69394287 -8.4612323 4.66635864 -8.0083313 3.6076355 C-4.93389867 0.28179169 -4.32553346 0.26235296 0 0 Z " fill="#00AFEF" transform="translate(628.3403930664063,-0.721527099609375)"/>
<path d="M0 0 C2.28108629 -0.03174297 4.56351229 -0.00293425 6.84352112 0.07402039 C8.09300034 0.07241409 9.34247955 0.0708078 10.62982178 0.06915283 C14.04129671 0.07548676 17.4453617 0.13043291 20.85552478 0.20746636 C24.42405809 0.27644838 27.99270094 0.2827088 31.5617981 0.29574585 C38.3127937 0.32987427 45.06181913 0.42004953 51.81194884 0.53059024 C59.49971463 0.65374015 67.18757688 0.71407053 74.87608421 0.76924002 C90.68480987 0.88407845 106.49157215 1.07743047 122.29884338 1.32279968 C120.87688757 4.96339699 119.27940487 8.27246997 117.31446838 11.65483093 C116.71634338 12.68801453 116.11821838 13.72119812 115.50196838 14.78569031 C114.85743713 15.8910614 114.21290588 16.9964325 113.54884338 18.13529968 C112.87148725 19.30245912 112.19440826 20.46977943 111.51759338 21.63725281 C109.44948224 25.20190774 107.37492073 28.7627799 105.29884338 32.32279968 C104.69362854 33.36097839 104.0884137 34.3991571 103.46485901 35.46879578 C101.16849353 39.40643254 98.87111991 43.3434757 96.57130432 47.27909851 C92.28822489 54.61234065 88.03764611 61.96388855 83.79884338 69.32279968 C78.41970259 78.66143175 73.00624892 87.97920286 67.56837463 97.28373718 C63.28662192 104.61563733 59.03679647 111.96550775 54.79884338 119.32279968 C47.1076687 132.67295634 39.34401378 145.98013097 31.5693512 159.28178406 C24.31031196 171.70362559 17.08580167 184.14438389 9.90455627 196.6113739 C5.15633203 204.84965662 0.37217645 213.06640033 -4.42723083 221.27494812 C-8.11280972 227.58389572 -11.77029768 233.90833133 -15.41111755 240.24320984 C-17.89970217 244.56999682 -20.39757722 248.89135022 -22.8993988 253.210495 C-24.09522299 255.27612734 -25.28860622 257.34317481 -26.47947693 259.41166687 C-28.12535566 262.26384181 -29.78584303 265.10694036 -31.45115662 267.94779968 C-31.94051697 268.80148132 -32.42987732 269.65516296 -32.93406677 270.53471375 C-33.38830017 271.30267273 -33.84253357 272.07063171 -34.31053162 272.86186218 C-34.70208435 273.53426941 -35.09363708 274.20667664 -35.49705505 274.89945984 C-35.89440857 275.36916199 -36.29176208 275.83886414 -36.70115662 276.32279968 C-37.69115662 276.32279968 -38.68115662 276.32279968 -39.70115662 276.32279968 C-40.26060974 275.30186218 -40.82006287 274.28092468 -41.39646912 273.22904968 C-48.03266619 261.17376232 -54.9307179 249.28110601 -61.89109802 237.41069031 C-64.81275846 232.42644952 -67.72642416 227.43755353 -70.63865662 222.44779968 C-71.20963074 221.46996521 -71.78060486 220.49213074 -72.36888123 219.48466492 C-77.4192424 210.82639858 -82.42849122 202.1445581 -87.41184998 193.44755554 C-90.1029308 188.76342534 -92.80735909 184.10044734 -95.68162537 179.52592468 C-96.11434753 178.83313416 -96.5470697 178.14034363 -96.99290466 177.42655945 C-98.10124284 175.66876063 -99.22842132 173.92287796 -100.35740662 172.17826843 C-101.95483367 168.78373593 -101.71634636 167.85287652 -100.70115662 164.32279968 C-99.44871521 161.78105164 -99.44871521 161.78105164 -97.84959412 159.06108093 C-97.25332214 158.03804871 -96.65705017 157.01501648 -96.04270935 155.96098328 C-95.06926575 154.3147699 -95.06926575 154.3147699 -94.07615662 152.63529968 C-93.39710687 151.47509128 -92.71881574 150.31443857 -92.04124451 149.15336609 C-90.63243237 146.74052657 -89.22037032 144.32963333 -87.80613708 141.91996765 C-84.5502779 136.36519591 -81.34845204 130.77926321 -78.13865662 125.19779968 C-72.77985469 115.90099535 -67.38480953 106.62590447 -61.97044373 97.3613739 C-57.68870745 90.02967489 -53.43895655 82.67996987 -49.20115662 75.32279968 C-43.82741463 65.99354039 -38.42159207 56.68381751 -32.98606873 47.39042664 C-29.88344387 42.08073022 -26.79788281 36.76174158 -23.73631287 31.42826843 C-23.40376495 30.84948944 -23.07121704 30.27071045 -22.72859192 29.6743927 C-21.12839228 26.88906576 -19.53066755 24.10238193 -17.93748474 21.31303406 C-17.35547302 20.2991864 -16.7734613 19.28533875 -16.17381287 18.24076843 C-15.67115906 17.36186951 -15.16850525 16.48297058 -14.65061951 15.57743835 C-14.00729675 14.50340759 -13.363974 13.42937683 -12.70115662 12.32279968 C-12.27855749 11.43833916 -11.85595837 10.55387863 -11.42055321 9.64261627 C-8.4928071 4.10525981 -6.50700767 0.69175627 0 0 Z " fill="#00AFEF" transform="translate(412.70115661621094,370.6772003173828)"/>
<path d="M0 0 C0.66 0 1.32 0 2 0 C15.85619301 27.33268427 15.85619301 27.33268427 20.875 38.625 C21.20177734 39.35702637 21.52855469 40.08905273 21.86523438 40.84326172 C24 45.73206518 24 45.73206518 24 48 C24.66 48 25.32 48 26 48 C26.27835693 47.12255127 26.55671387 46.24510254 26.84350586 45.34106445 C27.90131949 42.28508398 29.10779746 39.45646342 30.50390625 36.54296875 C30.99342773 35.52001709 31.48294922 34.49706543 31.98730469 33.44311523 C32.50711914 32.36876221 33.02693359 31.29440918 33.5625 30.1875 C34.09391602 29.08414307 34.62533203 27.98078613 35.17285156 26.84399414 C39.56623188 17.77721151 44.18102322 8.8469599 49 0 C49.66 0 50.32 0 51 0 C53.91765709 19.97339734 56.7391315 39.9393673 59 60 C56.69 60 54.38 60 52 60 C51.85377197 58.93040039 51.70754395 57.86080078 51.55688477 56.75878906 C51.01304696 52.78517462 50.46630937 48.81196363 49.91870117 44.83886719 C49.682234 43.12022571 49.44655015 41.40147626 49.21166992 39.68261719 C48.8736499 37.20999718 48.53280175 34.73778093 48.19140625 32.265625 C48.08719864 31.49881409 47.98299103 30.73200317 47.87562561 29.94195557 C47.40751724 26.57044419 46.86551082 23.29089274 46 20 C45.50072998 21.03406982 45.00145996 22.06813965 44.48706055 23.13354492 C42.62761662 26.98316498 40.76507491 30.8312794 38.90161133 34.67895508 C38.09673336 36.34195952 37.29268717 38.0053668 36.48950195 39.66918945 C35.33244697 42.06569033 34.17237241 44.46070908 33.01171875 46.85546875 C32.65534836 47.5952446 32.29897797 48.33502045 31.93180847 49.09721375 C28.14850129 56.88736401 28.14850129 56.88736401 26 60 C25.34 60 24.68 60 24 60 C23.60731934 59.20940186 23.21463867 58.41880371 22.81005859 57.60424805 C21.32444261 54.61577194 19.83690686 51.62826661 18.34814453 48.64135742 C17.70937577 47.35885206 17.07133094 46.07598583 16.43408203 44.79272461 C12.4499681 36.77116608 8.3610413 28.82541045 4 21 C2.36287122 29.52827316 1.07859976 38.08844837 -0.125 46.6875 C-0.30675781 47.97333984 -0.48851562 49.25917969 -0.67578125 50.58398438 C-1.11912459 53.72238858 -1.56049041 56.86105702 -2 60 C-4.31 60 -6.62 60 -9 60 C-8.91452408 59.37883301 -8.82904816 58.75766602 -8.74098206 58.11767578 C-7.84813482 51.62849894 -6.95597582 45.13922774 -6.06420898 38.64990234 C-5.73170182 36.23093295 -5.39902161 33.81198734 -5.06616211 31.39306641 C-4.58661684 27.90794067 -4.10770239 24.42272873 -3.62890625 20.9375 C-3.48095108 19.86322754 -3.33299591 18.78895508 -3.18055725 17.68212891 C-3.04048752 16.6616748 -2.90041779 15.6412207 -2.75610352 14.58984375 C-2.62446808 13.63319824 -2.49283264 12.67655273 -2.35720825 11.69091797 C-2.03120337 9.23506096 -1.74175668 6.7777164 -1.46069336 4.31640625 C-1 1 -1 1 0 0 Z " fill="#F2F2F2" transform="translate(625,277)"/>
<path d="M0 0 C2.31 0 4.62 0 7 0 C7.00364563 0.57549591 7.00729126 1.15099182 7.01104736 1.743927 C7.05293515 7.74668414 7.12232453 13.74868115 7.20751953 19.75097656 C7.23570362 21.98950591 7.25693086 24.2281343 7.27099609 26.46679688 C7.29246048 29.68931694 7.3391306 32.91064938 7.390625 36.1328125 C7.39185364 37.12991241 7.39308228 38.12701233 7.39434814 39.15432739 C7.517621 45.03409001 8.00786834 48.56299999 12 53 C16.9444776 55.1457167 20.79625786 55.34911833 26 54 C29.78806082 51.89552177 30.80160271 50.63033654 32.11083984 46.47070312 C33.21114446 41.66443119 33.34936641 36.94544553 33.4140625 32.03125 C33.43342865 31.11033569 33.4527948 30.18942139 33.4727478 29.24060059 C33.53206499 26.32715841 33.57873588 23.41367569 33.625 20.5 C33.66322391 18.51300452 33.70227815 16.52602484 33.7421875 14.5390625 C33.83772665 9.69283803 33.92193243 4.84653612 34 0 C35.98 0 37.96 0 40 0 C40.10185277 6.4044834 40.17165458 12.80875607 40.21972656 19.21386719 C40.23977764 21.39037888 40.26702571 23.56683714 40.30175781 25.74316406 C40.35056212 28.88099393 40.37303438 32.01810835 40.390625 35.15625 C40.41127014 36.12115356 40.43191528 37.08605713 40.45318604 38.0802002 C40.45553739 45.24305273 39.00423345 50.65985015 34.1484375 56.05859375 C33.56320312 56.51363281 32.97796875 56.96867187 32.375 57.4375 C31.78460937 57.91058594 31.19421875 58.38367188 30.5859375 58.87109375 C25.73269691 62.32574038 19.7112489 61.46813516 14 61 C8.42197893 59.53023572 5.12246264 56.57214033 1.91015625 51.87890625 C0.12316022 48.18987153 -0.12492889 44.34975566 -0.11352539 40.30151367 C-0.11344986 39.40095749 -0.11337433 38.50040131 -0.11329651 37.57255554 C-0.10813522 36.6140419 -0.10297394 35.65552826 -0.09765625 34.66796875 C-0.0962413 33.67622147 -0.09482635 32.68447418 -0.09336853 31.66267395 C-0.08778418 28.50425157 -0.07523452 25.34590085 -0.0625 22.1875 C-0.05748298 20.04231873 -0.05292042 17.89713635 -0.04882812 15.75195312 C-0.03781988 10.50127776 -0.0210973 5.250644 0 0 Z " fill="#F4F4F4" transform="translate(565,277)"/>
<path d="M0 0 C11.55 0 23.1 0 35 0 C35 1.65 35 3.3 35 5 C25.76 5 16.52 5 7 5 C7 11.6 7 18.2 7 25 C15.91 25 24.82 25 34 25 C34 26.65 34 28.3 34 30 C25.09 30 16.18 30 7 30 C7 38.25 7 46.5 7 55 C15.91 55 24.82 55 34 55 C34 56.65 34 58.3 34 60 C22.78 60 11.56 60 0 60 C0 40.2 0 20.4 0 0 Z " fill="#F7F7F7" transform="translate(482,277)"/>
<path d="M0 0 C2.31 0 4.62 0 7 0 C12.77075273 13.17655206 12.77075273 13.17655206 15.0625 19.75 C16.65642809 24.26612959 18.63257641 28.4531015 20.83203125 32.703125 C22.3786742 35.74468372 23.68795864 38.85110075 25 42 C25.33 42.66 25.66 43.32 26 44 C35.405 22.22 35.405 22.22 45 0 C47.31 0 49.62 0 52 0 C49.26460457 8.97168873 45.47083727 17.46749314 41.75 26.0625 C41.09993453 27.57212533 40.45019295 29.08189018 39.80078125 30.59179688 C35.57270747 40.41151813 31.29508737 50.20943331 27 60 C26.01 60 25.02 60 24 60 C21.36986312 53.78840015 18.81507583 47.56312836 16.4375 41.25 C14.84487419 37.06253526 13.10433959 33.10667192 11.02734375 29.14453125 C9.1922841 25.31393145 7.79457998 21.3066202 6.3046875 17.33203125 C4.69069772 13.21007532 2.84001372 9.22821308 0.91796875 5.2421875 C0 3 0 3 0 0 Z " fill="#F4F4F4" transform="translate(421,277)"/>
<path d="M0 0 C1.98 0 3.96 0 6 0 C6 18.15 6 36.3 6 55 C13.59 55 21.18 55 29 55 C29 56.65 29 58.3 29 60 C19.43 60 9.86 60 0 60 C0 40.2 0 20.4 0 0 Z " fill="#FFFFFF" transform="translate(527,277)"/>
</svg>
